<svg width="24" height="25" viewBox="0 0 24 25" fill="none" xmlns="http://www.w3.org/2000/svg">
<path d="M4 9.3V7.06C4 6.16392 4 5.71587 4.17439 5.37362C4.32779 5.07256 4.57256 4.82779 4.87362 4.67439C5.21587 4.5 5.66392 4.5 6.56 4.5H8.8M15.2 4.5L17.44 4.5C18.3361 4.5 18.7841 4.5 19.1264 4.67439C19.4274 4.82779 19.6722 5.07256 19.8256 5.37362C20 5.71587 20 6.16392 20 7.06V9.3M20 15.7V17.94C20 18.8361 20 19.2841 19.8256 19.6264C19.6722 19.9274 19.4274 20.1722 19.1264 20.3256C18.7841 20.5 18.3361 20.5 17.44 20.5H15.2M8.8 20.5H6.56C5.66392 20.5 5.21587 20.5 4.87362 20.3256C4.57256 20.1722 4.32779 19.9274 4.17439 19.6264C4 19.2841 4 18.8361 4 17.94L4 15.7" stroke="#E9E9F3" stroke-width="2" stroke-linecap="round"/>
</svg>
