<svg width="24" height="25" viewBox="0 0 24 25" fill="none" xmlns="http://www.w3.org/2000/svg">
<path d="M18 10.2639C18.6137 10.8132 19 11.6115 19 12.5C19 13.3885 18.6137 14.1868 18 14.7361M20 8.02754C21.2275 9.12618 22 10.7228 22 12.4998C22 14.2768 21.2275 15.8733 20 16.972M4 16.5H5C5.55228 16.5 6 16.0522 6 15.5V9.49996C6 8.94767 5.55228 8.49996 5 8.49996H4C2.89543 8.49996 2 9.39539 2 10.5V14.5C2 15.6045 2.89543 16.5 4 16.5ZM6.55279 8.22356L12.5528 5.22356C13.2177 4.89111 14 5.37461 14 6.11799V18.8819C14 19.6253 13.2177 20.1088 12.5528 19.7763L6.55279 16.7763C6.214 16.607 6 16.2607 6 15.8819V9.11799C6 8.73922 6.214 8.39295 6.55279 8.22356Z" stroke="#E9E9F3" stroke-width="2" stroke-linecap="round"/>
</svg>
