<svg width="24" height="24" viewBox="0 0 24 24" fill="none" xmlns="http://www.w3.org/2000/svg">
<path d="M9.5 4C9.5 2.89543 10.8954 2 12 2C13.1046 2 14.5 2.89543 14.5 4V13C14.5 14.1046 13.1046 15 12 15C10.8954 15 9.5 14.1046 9.5 13V4Z" fill="#374151"/>
<path d="M6 9.5V12C6 15.3137 8.68629 18 12 18M18 9V12C18 15.3137 15.3137 18 12 18M12 18V22M12 22H14M12 22H10M12 15C10.8954 15 9.5 14.1046 9.5 13V4C9.5 2.89543 10.8954 2 12 2C13.1046 2 14.5 2.89543 14.5 4V13C14.5 14.1046 13.1046 15 12 15Z" stroke="#374151" stroke-width="2" stroke-linecap="round"/>
</svg>
