<svg width="24" height="26" viewBox="0 0 24 26" fill="none" xmlns="http://www.w3.org/2000/svg">
<path d="M16.5885 6.53027L7.58071 11.5M7.58071 14.7774L16.5885 19.4707M8.06738 13.1387C8.06738 14.7955 6.72424 16.1387 5.06738 16.1387C3.41053 16.1387 2.06738 14.7955 2.06738 13.1387C2.06738 11.4818 3.41053 10.1387 5.06738 10.1387C6.72424 10.1387 8.06738 11.4818 8.06738 13.1387ZM21.9316 4.65674C21.9316 6.31359 20.5885 7.65674 18.9316 7.65674C17.2748 7.65674 15.9316 6.31359 15.9316 4.65674C15.9316 2.99988 17.2748 1.65674 18.9316 1.65674C20.5885 1.65674 21.9316 2.99988 21.9316 4.65674ZM21.9326 21.343C21.9326 22.9999 20.5895 24.343 18.9326 24.343C17.2758 24.343 15.9326 22.9999 15.9326 21.343C15.9326 19.6862 17.2758 18.343 18.9326 18.343C20.5895 18.343 21.9326 19.6862 21.9326 21.343Z" stroke="white" stroke-width="2" stroke-linecap="round"/>
</svg>
