<svg width="16" height="16" viewBox="0 0 16 16" fill="none" xmlns="http://www.w3.org/2000/svg">
<path d="M3.16666 10.6667L4.99745 8.33787C5.51659 7.67749 6.50967 7.65589 7.05705 8.29306L8.66666 10.1667M7.27669 8.54874C7.96812 7.66919 8.93155 6.42312 8.99423 6.34204L9.00088 6.33352C9.52096 5.6774 10.5109 5.65729 11.057 6.29306L12.6667 8.16675M4.49999 3.16675H11.5C12.2364 3.16675 12.8333 3.7637 12.8333 4.50008V11.5001C12.8333 12.2365 12.2364 12.8334 11.5 12.8334H4.49999C3.76361 12.8334 3.16666 12.2365 3.16666 11.5001V4.50008C3.16666 3.7637 3.76361 3.16675 4.49999 3.16675Z" stroke="#667085" stroke-width="1.5" stroke-linecap="round" stroke-linejoin="round"/>
</svg>
