<svg width="16" height="16" viewBox="0 0 16 16" fill="none" xmlns="http://www.w3.org/2000/svg">
<path d="M6.50001 4.00008H12.1667M6.50001 8.00008H12.1667M6.50001 12.0001H12.1667M4.33334 4.00008C4.33334 4.18418 4.1841 4.33341 4.00001 4.33341C3.81591 4.33341 3.66667 4.18418 3.66667 4.00008C3.66667 3.81599 3.81591 3.66675 4.00001 3.66675C4.1841 3.66675 4.33334 3.81599 4.33334 4.00008ZM4.33334 8.00008C4.33334 8.18418 4.1841 8.33341 4.00001 8.33341C3.81591 8.33341 3.66667 8.18418 3.66667 8.00008C3.66667 7.81599 3.81591 7.66675 4.00001 7.66675C4.1841 7.66675 4.33334 7.81599 4.33334 8.00008ZM4.33334 12.0001C4.33334 12.1842 4.1841 12.3334 4.00001 12.3334C3.81591 12.3334 3.66667 12.1842 3.66667 12.0001C3.66667 11.816 3.81591 11.6667 4.00001 11.6667C4.1841 11.6667 4.33334 11.816 4.33334 12.0001Z" stroke="#667085" stroke-width="1.5" stroke-linecap="round" stroke-linejoin="round"/>
</svg>
