<svg width="16" height="16" viewBox="0 0 16 16" fill="none" xmlns="http://www.w3.org/2000/svg">
<path d="M3.16667 4.16675L4.16667 3.16675V6.83341M4.16667 6.83341H3.16667M4.16667 6.83341H4.83334M8.83333 9.50008H7.77083C7.28367 9.50008 7.01215 8.95734 7.27053 8.57166C7.30236 8.52414 7.34742 8.4875 7.39504 8.45581L8.59494 7.65738C8.64256 7.6257 8.68747 7.5889 8.71997 7.54184C9.01689 7.11197 8.7142 6.50008 8.16839 6.50008H7.16667M11.1667 9.83341H12.1309C12.9539 9.83341 13.0999 11.0918 12.3401 11.3038C12.3033 11.3141 12.2647 11.3182 12.2265 11.3196L11.8333 11.3334L12.2265 11.3473C12.2647 11.3486 12.3033 11.3527 12.3401 11.363C13.0999 11.575 12.9539 12.8334 12.1309 12.8334H11.1667" stroke="#667085" stroke-width="1.5" stroke-linecap="round" stroke-linejoin="round"/>
</svg>
