<svg width="20" height="21" viewBox="0 0 20 21" fill="none" xmlns="http://www.w3.org/2000/svg">
<path d="M9 18C8.44772 18 8 18.4477 8 19C8 19.5523 8.44772 20 9 20V18ZM13.908 18.782L13.454 17.891L13.454 17.891L13.908 18.782ZM14.782 17.908L15.673 18.362V18.362L14.782 17.908ZM13.908 1.21799L13.454 2.10899L13.454 2.10899L13.908 1.21799ZM14.782 2.09202L13.891 2.54601V2.54601L14.782 2.09202ZM2.09202 1.21799L1.63803 0.32698L1.63803 0.32698L2.09202 1.21799ZM0.326981 1.63803C0.0762485 2.13012 0.271907 2.73229 0.763997 2.98303C1.25609 3.23376 1.85826 3.0381 2.10899 2.54601L0.326981 1.63803ZM15.979 17.0609C16.0126 16.5097 15.593 16.0355 15.0418 16.0019C14.4905 15.9682 14.0163 16.3878 13.9827 16.9391L15.979 17.0609ZM13.9827 3.06094C14.0163 3.6122 14.4905 4.0318 15.0418 3.99814C15.593 3.96448 16.0126 3.49031 15.979 2.93906L13.9827 3.06094ZM14 9C13.4477 9 13 9.44771 13 10C13 10.5523 13.4477 11 14 11V9ZM18 11C18.5523 11 19 10.5523 19 10C19 9.44771 18.5523 9 18 9V11ZM17.8321 6.4453C17.5257 5.98577 16.9048 5.8616 16.4453 6.16795C15.9858 6.4743 15.8616 7.09517 16.1679 7.5547L17.8321 6.4453ZM18.8151 9.72265L17.983 10.2774L18.8151 9.72265ZM18.8151 10.2774L17.983 9.72265L18.8151 10.2774ZM16.1679 12.4453C15.8616 12.9048 15.9858 13.5257 16.4453 13.8321C16.9048 14.1384 17.5257 14.0142 17.8321 13.5547L16.1679 12.4453ZM3.7313 1.13943L3.36789 2.07106L3.7313 1.13943ZM7.73131 2.69979L8.09472 1.76816L7.73131 2.69979ZM6.26869 19.8606L5.90528 20.7922L6.26869 19.8606ZM2.26869 18.3002L1.90528 19.2318L1.90528 19.2318L2.26869 18.3002ZM4.2 2H11.8V0H4.2V2ZM11.8 18H9V20H11.8V18ZM11.8 20C12.3436 20 12.8114 20.0008 13.195 19.9694C13.5904 19.9371 13.9836 19.8658 14.362 19.673L13.454 17.891C13.4045 17.9162 13.3038 17.9539 13.0322 17.9761C12.7488 17.9992 12.3766 18 11.8 18V20ZM13.891 17.454C13.7951 17.6422 13.6422 17.7951 13.454 17.891L14.362 19.673C14.9265 19.3854 15.3854 18.9265 15.673 18.362L13.891 17.454ZM11.8 2C12.3766 2 12.7488 2.00078 13.0322 2.02393C13.3038 2.04612 13.4045 2.0838 13.454 2.10899L14.362 0.326981C13.9836 0.134186 13.5904 0.0628704 13.195 0.0305694C12.8114 -0.000777721 12.3436 0 11.8 0V2ZM13.454 2.10899C13.6422 2.20487 13.7951 2.35785 13.891 2.54601L15.673 1.63803C15.3854 1.07354 14.9265 0.614601 14.362 0.32698L13.454 2.10899ZM4.2 0C3.65645 0 3.18864 -0.000777721 2.80497 0.0305694C2.40963 0.0628704 2.01641 0.134186 1.63803 0.32698L2.54601 2.10899C2.59545 2.0838 2.69617 2.04612 2.96784 2.02393C3.25117 2.00078 3.62345 2 4.2 2V0ZM2.10899 2.54601C2.20487 2.35785 2.35785 2.20487 2.54601 2.10899L1.63803 0.32698C1.07354 0.614601 0.614601 1.07354 0.326981 1.63803L2.10899 2.54601ZM13.9827 16.9391C13.9618 17.2811 13.9196 17.3978 13.891 17.454L15.673 18.362C15.8864 17.9432 15.9519 17.5033 15.979 17.0609L13.9827 16.9391ZM15.979 2.93906C15.9519 2.49667 15.8864 2.05683 15.673 1.63803L13.891 2.54601C13.9196 2.60222 13.9618 2.71891 13.9827 3.06094L15.979 2.93906ZM14 11H18V9H14V11ZM16.1679 7.5547L17.983 10.2774L19.6472 9.16795L17.8321 6.4453L16.1679 7.5547ZM17.983 9.72265L16.1679 12.4453L17.8321 13.5547L19.6472 10.8321L17.983 9.72265ZM17.983 10.2774C17.8711 10.1094 17.8711 9.8906 17.983 9.72265L19.6472 10.8321C19.983 10.3282 19.983 9.6718 19.6472 9.16795L17.983 10.2774ZM3.36789 2.07106L7.36789 3.63142L8.09472 1.76816L4.09472 0.207807L3.36789 2.07106ZM8 4.54818V18.0122H10V4.54818H8ZM6.63211 18.9289L2.63211 17.3686L1.90528 19.2318L5.90528 20.7922L6.63211 18.9289ZM2 16.4518V2.98782H0V16.4518H2ZM2.63211 17.3686C2.24745 17.2185 2 16.8529 2 16.4518H0C0 17.6838 0.759204 18.7848 1.90528 19.2318L2.63211 17.3686ZM8 18.0122C8 18.6975 7.29836 19.1888 6.63211 18.9289L5.90528 20.7922C7.86312 21.5559 10 20.1263 10 18.0122H8ZM7.36789 3.63142C7.75255 3.78147 8 4.14707 8 4.54818H10C10 3.31625 9.2408 2.21523 8.09472 1.76816L7.36789 3.63142ZM4.09472 0.207807C2.13688 -0.555924 0 0.873708 0 2.98782H2C2 2.30249 2.70164 1.81116 3.36789 2.07106L4.09472 0.207807Z" fill="white"/>
</svg>
