<svg width="47" height="57" viewBox="0 0 47 57" fill="none" xmlns="http://www.w3.org/2000/svg">
<g opacity="0.3">
<path opacity="0.3" d="M32.82 11.5729C31.5353 11.5716 30.3036 11.0607 29.3952 10.1523C28.4868 9.2439 27.9759 8.01219 27.9746 6.72751V4.36723e-07H6.32573C5.49514 -0.00030822 4.6726 0.162994 3.90514 0.480635C3.13769 0.798276 2.44035 1.26402 1.85292 1.85123C1.26549 2.43844 0.799508 3.13563 0.481582 3.90297C0.163655 4.67031 -5.73498e-08 5.49276 0 6.32335V44.4422C-5.73497e-08 45.2728 0.163655 46.0953 0.481582 46.8626C0.799508 47.6299 1.26549 48.3271 1.85292 48.9143C2.44035 49.5015 3.13769 49.9672 3.90514 50.2849C4.6726 50.6025 5.49514 50.7659 6.32573 50.7656H32.3148C33.1452 50.7656 33.9674 50.602 34.7346 50.2842C35.5018 49.9665 36.1989 49.5007 36.7861 48.9135C37.3733 48.3263 37.839 47.6292 38.1568 46.862C38.4746 46.0948 38.6381 45.2726 38.6381 44.4422V11.5729H32.82Z" fill="#211DEF"/>
</g>
<path d="M38.6376 11.5729H32.8195C31.5348 11.5716 30.3031 11.0607 29.3947 10.1523C28.4862 9.2439 27.9754 8.01219 27.9741 6.72751V0L38.6376 11.5729Z" fill="#211DEF"/>
<path d="M30.6887 19.6751H6.42913C6.19605 19.6751 5.97252 19.5825 5.80771 19.4176C5.6429 19.2528 5.5503 19.0293 5.5503 18.7962C5.54999 18.6806 5.5725 18.5661 5.61653 18.4592C5.66056 18.3523 5.72524 18.2551 5.80688 18.1733C5.88852 18.0914 5.98551 18.0265 6.09229 17.9822C6.19907 17.9378 6.31352 17.915 6.42913 17.915H30.6887C30.9224 17.915 31.1465 18.0079 31.3118 18.1731C31.4771 18.3384 31.5699 18.5625 31.5699 18.7962C31.5693 19.0295 31.4762 19.2531 31.311 19.4178C31.1458 19.5826 30.922 19.6751 30.6887 19.6751Z" fill="#211DEF"/>
<path d="M30.6887 24.9314H6.42913C6.19605 24.9314 5.97252 24.8388 5.80771 24.674C5.6429 24.5092 5.5503 24.2857 5.5503 24.0526C5.54999 23.937 5.5725 23.8224 5.61653 23.7155C5.66056 23.6086 5.72524 23.5115 5.80688 23.4296C5.88852 23.3477 5.98551 23.2828 6.09229 23.2385C6.19907 23.1942 6.31352 23.1714 6.42913 23.1714H30.6887C30.9224 23.1714 31.1465 23.2642 31.3118 23.4294C31.4771 23.5947 31.5699 23.8189 31.5699 24.0526C31.5693 24.2859 31.4762 24.5094 31.311 24.6741C31.1458 24.8388 30.922 24.9314 30.6887 24.9314Z" fill="#211DEF"/>
<path d="M30.6887 30.1882H6.42913C6.31352 30.1882 6.19907 30.1654 6.09229 30.1211C5.98551 30.0768 5.88852 30.0119 5.80688 29.93C5.72524 29.8482 5.66056 29.751 5.61653 29.6441C5.5725 29.5372 5.54999 29.4227 5.5503 29.3071C5.5503 29.074 5.6429 28.8504 5.80771 28.6856C5.97252 28.5208 6.19605 28.4282 6.42913 28.4282H30.6887C30.922 28.4282 31.1458 28.5207 31.311 28.6855C31.4762 28.8502 31.5693 29.0738 31.5699 29.3071C31.5699 29.5408 31.4771 29.7649 31.3118 29.9301C31.1465 30.0954 30.9224 30.1882 30.6887 30.1882Z" fill="#211DEF"/>
<path d="M21.1202 35.4448H6.42913C6.31352 35.4448 6.19907 35.422 6.09229 35.3777C5.98551 35.3334 5.88852 35.2684 5.80688 35.1866C5.72524 35.1047 5.66056 35.0076 5.61653 34.9007C5.5725 34.7938 5.54999 34.6793 5.5503 34.5636C5.5503 34.3306 5.6429 34.107 5.80771 33.9422C5.97252 33.7774 6.19605 33.6848 6.42913 33.6848H21.1202C21.3533 33.6848 21.5769 33.7774 21.7417 33.9422C21.9065 34.107 21.9991 34.3306 21.9991 34.5636C21.9994 34.6793 21.9769 34.7938 21.9328 34.9007C21.8888 35.0076 21.8241 35.1047 21.7425 35.1866C21.6609 35.2684 21.5639 35.3334 21.4571 35.3777C21.3503 35.422 21.2358 35.4448 21.1202 35.4448Z" fill="#211DEF"/>
<path d="M43.2248 40.0903H13.8426C11.7584 40.0903 10.0688 41.7799 10.0688 43.8641V52.6243C10.0688 54.7085 11.7584 56.3981 13.8426 56.3981H43.2248C45.3091 56.3981 46.9986 54.7085 46.9986 52.6243V43.8641C46.9986 41.7799 45.3091 40.0903 43.2248 40.0903Z" fill="#211DEF"/>
<path d="M17.91 50.1404V51.8487H16.1406V50.1404H17.91Z" fill="white"/>
<path d="M24.711 50.1453C24.4168 50.6796 23.9724 51.1158 23.4327 51.4001C22.8254 51.7107 22.1502 51.8649 21.4682 51.8489H18.7988V44.783H21.4682C22.1507 44.7661 22.8268 44.917 23.4374 45.2224C23.9749 45.5015 24.418 45.9331 24.711 46.4631C25.0148 47.0272 25.1678 47.6601 25.1551 48.3007C25.1672 48.9434 25.0143 49.5785 24.711 50.1453ZM22.8734 49.7904C23.0645 49.5944 23.2124 49.3606 23.3079 49.1041C23.4034 48.8475 23.4443 48.5739 23.428 48.3007C23.4444 48.0278 23.4036 47.7544 23.3081 47.4983C23.2126 47.2421 23.0645 47.0088 22.8734 46.8132C22.4453 46.4379 21.8862 46.247 21.3179 46.2822H20.5119V50.3192H21.3202C21.8872 50.3534 22.445 50.1635 22.8734 49.7904Z" fill="white"/>
<path d="M31.2971 45.1376C31.8348 45.4429 32.2791 45.8889 32.5825 46.4277C32.9004 46.9966 33.0625 47.6394 33.0524 48.291C33.0632 48.9443 32.9011 49.5888 32.5825 50.1591C32.2781 50.6999 31.8321 51.1476 31.2924 51.4539C30.7431 51.7676 30.1203 51.9298 29.4878 51.9239C28.8552 51.9294 28.2326 51.7673 27.6831 51.4539C27.1435 51.1482 26.6982 50.7004 26.3954 50.1591C26.0758 49.5892 25.9136 48.9444 25.9254 48.291C25.9133 47.6391 26.0755 46.9958 26.3954 46.4277C26.6997 45.8888 27.1448 45.4429 27.6831 45.1376C28.2326 44.8242 28.8552 44.6621 29.4878 44.6676C30.1218 44.6617 30.7461 44.8238 31.2971 45.1376ZM28.1484 46.8059C27.8017 47.2206 27.6254 47.7514 27.6549 48.291C27.6253 48.8286 27.8018 49.3572 28.1484 49.7691C28.3172 49.9526 28.5242 50.0969 28.7548 50.1919C28.9854 50.2869 29.234 50.3302 29.4831 50.3189C29.7314 50.3295 29.9791 50.2859 30.2088 50.1909C30.4385 50.096 30.6447 49.952 30.8131 49.7691C31.1614 49.3579 31.3395 48.8292 31.3112 48.291C31.3394 47.7537 31.1631 47.2256 30.8178 46.813C30.649 46.6294 30.442 46.485 30.2114 46.39C29.9808 46.295 29.7322 46.2516 29.4831 46.2631C29.2346 46.2517 28.9866 46.2944 28.7561 46.3881C28.5257 46.4818 28.3184 46.6243 28.1484 46.8059Z" fill="white"/>
<path d="M39.4722 45.4221C40.0682 45.907 40.4735 46.587 40.6166 47.3419H38.8072C38.6852 47.029 38.4714 46.7604 38.1939 46.5711C37.9015 46.3807 37.5583 46.2833 37.2094 46.2915C36.979 46.2841 36.75 46.3299 36.5401 46.4253C36.3302 46.5206 36.1452 46.663 35.9992 46.8414C35.672 47.2599 35.5053 47.7817 35.5292 48.3124C35.5053 48.8409 35.6721 49.3605 35.9992 49.7763C36.1463 49.9529 36.3318 50.0935 36.5415 50.1876C36.7512 50.2817 36.9797 50.3266 37.2094 50.3191C37.5584 50.3284 37.9019 50.2309 38.1939 50.0395C38.4698 49.8537 38.6835 49.5893 38.8072 49.2805H40.6166C40.4712 50.0332 40.0662 50.711 39.4722 51.1956C38.833 51.6836 38.0434 51.933 37.2399 51.9006C36.6068 51.9139 35.9818 51.7564 35.4305 51.4447C34.9147 51.1448 34.4961 50.7027 34.2251 50.1711C33.9338 49.588 33.7887 48.9429 33.8021 48.2912C33.7888 47.6396 33.934 46.9945 34.2251 46.4114C34.4961 45.8798 34.9147 45.4376 35.4305 45.1378C35.9818 44.8261 36.6068 44.6685 37.2399 44.6819C38.0476 44.6605 38.8373 44.9224 39.4722 45.4221Z" fill="white"/>
</svg>
