<svg width="68" height="83" viewBox="0 0 68 83" fill="none" xmlns="http://www.w3.org/2000/svg">
<g opacity="0.3">
<path opacity="0.3" d="M47.4878 17.3472C45.629 17.3454 43.8468 16.6061 42.5324 15.2917C41.218 13.9773 40.4788 12.1952 40.477 10.3363V0.602173H9.14939C6.72282 0.602173 4.39565 1.56615 2.6798 3.282C0.963958 4.99784 0 7.32497 0 9.75154V64.9063C0.00360344 67.3305 0.969142 69.6542 2.6846 71.3671C4.40005 73.0801 6.72517 74.0422 9.14939 74.0422H46.7568C49.181 74.0422 51.5061 73.0801 53.2216 71.3671C54.937 69.6542 55.9026 67.3305 55.9062 64.9063V17.3472H47.4878Z" fill="#FF3E4C"/>
</g>
<path d="M55.9058 17.3472H47.4874C45.6285 17.3454 43.8463 16.6061 42.532 15.2917C41.2176 13.9773 40.4784 12.1952 40.4766 10.3363V0.602173L55.9058 17.3472Z" fill="#FF3E4C"/>
<path d="M44.4039 51.8879H9.30234C8.96419 51.8879 8.63988 51.7535 8.40078 51.5144C8.16167 51.2753 8.02734 50.951 8.02734 50.6129C8.02824 50.2753 8.16297 49.9519 8.40198 49.7135C8.64099 49.4751 8.96478 49.3413 9.30234 49.3413H44.4039C44.7412 49.3413 45.0646 49.4752 45.3031 49.7137C45.5416 49.9521 45.6755 50.2756 45.6755 50.6129C45.676 50.7801 45.6434 50.9459 45.5797 51.1005C45.516 51.2552 45.4224 51.3957 45.3043 51.5142C45.1862 51.6326 45.0459 51.7266 44.8914 51.7908C44.7369 51.8549 44.5712 51.8879 44.4039 51.8879Z" fill="#FF3E4C"/>
<path d="M44.4039 37.5264H9.30234C8.96478 37.5264 8.64099 37.3924 8.40198 37.1541C8.16297 36.9157 8.02824 36.5923 8.02734 36.2548C8.02734 35.9166 8.16167 35.5922 8.40078 35.3531C8.63988 35.114 8.96419 34.9798 9.30234 34.9798H44.4039C44.5712 34.9798 44.7369 35.0128 44.8914 35.0769C45.0459 35.141 45.1862 35.2349 45.3043 35.3534C45.4224 35.4718 45.516 35.6124 45.5797 35.7671C45.6434 35.9218 45.676 36.0875 45.6755 36.2548C45.6755 36.592 45.5416 36.9154 45.3031 37.1539C45.0646 37.3924 44.7412 37.5264 44.4039 37.5264Z" fill="#FF3E4C"/>
<path d="M44.4039 44.7071H9.30234C8.96419 44.7071 8.63988 44.5728 8.40078 44.3337C8.16167 44.0946 8.02734 43.7703 8.02734 43.4321C8.02824 43.0946 8.16297 42.7711 8.40198 42.5327C8.64099 42.2944 8.96478 42.1605 9.30234 42.1605H44.4039C44.7412 42.1605 45.0646 42.2945 45.3031 42.533C45.5416 42.7714 45.6755 43.0949 45.6755 43.4321C45.676 43.5994 45.6434 43.7651 45.5797 43.9198C45.516 44.0745 45.4224 44.2151 45.3043 44.3335C45.1862 44.4519 45.0459 44.5459 44.8914 44.61C44.7369 44.6741 44.5712 44.7071 44.4039 44.7071Z" fill="#FF3E4C"/>
<path d="M30.5591 30.3452H9.30234C8.96478 30.3452 8.64099 30.2114 8.40198 29.973C8.16297 29.7346 8.02824 29.4112 8.02734 29.0736C8.02734 28.7355 8.16167 28.4112 8.40078 28.1721C8.63988 27.933 8.96419 27.7986 9.30234 27.7986H30.5591C30.8967 27.7995 31.2201 27.9342 31.4585 28.1732C31.6969 28.4122 31.8307 28.7361 31.8307 29.0736C31.8298 29.4106 31.6956 29.7335 31.4573 29.9718C31.219 30.21 30.8961 30.3443 30.5591 30.3452Z" fill="#FF3E4C"/>
<path d="M30.5591 23.1645H9.30234C8.96478 23.1645 8.64099 23.0305 8.40198 22.7922C8.16297 22.5538 8.02824 22.2304 8.02734 21.8929C8.02734 21.5547 8.16167 21.2303 8.40078 20.9912C8.63988 20.7521 8.96419 20.6179 9.30234 20.6179H30.5591C30.8967 20.6188 31.2201 20.7535 31.4585 20.9925C31.6969 21.2315 31.8307 21.5553 31.8307 21.8929C31.8298 22.2298 31.6956 22.5527 31.4573 22.791C31.219 23.0293 30.8961 23.1636 30.5591 23.1645Z" fill="#FF3E4C"/>
<path d="M62.5394 58.6096H20.0258C17.0101 58.6096 14.5654 61.0543 14.5654 64.07V76.7452C14.5654 79.7608 17.0101 82.2056 20.0258 82.2056H62.5394C65.5551 82.2056 67.9998 79.7608 67.9998 76.7452V64.07C67.9998 61.0543 65.5551 58.6096 62.5394 58.6096Z" fill="#FF3E4C"/>
<path d="M28.5129 73.1514V75.6232H25.9561V73.1514H28.5129Z" fill="white"/>
<path d="M32.2726 72.036V75.623H29.8008V65.3992H33.806C35.0198 65.3992 35.948 65.7018 36.5838 66.3036C36.9055 66.6198 37.1567 67.0004 37.3207 67.4206C37.4848 67.8407 37.5581 68.2909 37.5358 68.7414C37.5482 69.3358 37.4014 69.9227 37.1108 70.4414C36.814 70.9484 36.374 71.3566 35.846 71.6144C35.2092 71.9154 34.51 72.0611 33.806 72.0394L32.2726 72.036ZM35.0198 68.7414C35.0198 67.8347 34.5234 67.3814 33.5306 67.3814H32.2726V70.0436H33.5306C34.5234 70.0527 35.0198 69.6186 35.0198 68.7414Z" fill="white"/>
<path d="M47.3049 73.1579C46.8792 73.931 46.2361 74.5623 45.4553 74.9736C44.5767 75.4234 43.5997 75.6465 42.6129 75.6229H38.7539V65.3992H42.6129C43.6004 65.3743 44.5789 65.5926 45.4621 66.0349C46.2408 66.4374 46.8822 67.0623 47.3049 67.8302C47.7473 68.6454 47.9699 69.5617 47.9509 70.489C47.9693 71.4195 47.7468 72.3389 47.3049 73.1579ZM44.6461 72.6445C44.9225 72.3608 45.1366 72.0226 45.2748 71.6514C45.413 71.2802 45.4721 70.8843 45.4485 70.489C45.4723 70.0941 45.4132 69.6986 45.275 69.3279C45.1368 68.9573 44.9226 68.6197 44.6461 68.3367C44.0277 67.7941 43.2199 67.5179 42.3987 67.5683H41.2257V73.4095H42.3987C43.2192 73.4594 44.0264 73.1846 44.6461 72.6445Z" fill="white"/>
<path d="M56.018 65.3992V67.3678H51.8258V69.6084H55.0626V71.4886H51.8258V75.623H49.3506V65.3992H56.018Z" fill="white"/>
<path d="M43.7814 20.6179H37.7702C36.7224 20.6179 35.873 21.4673 35.873 22.5151V28.5263C35.873 29.5741 36.7224 30.4235 37.7702 30.4235H43.7814C44.8292 30.4235 45.6786 29.5741 45.6786 28.5263V22.5151C45.6786 21.4673 44.8292 20.6179 43.7814 20.6179Z" fill="#FF3E4C"/>
</svg>
