<svg width="68" height="82" viewBox="0 0 68 82" fill="none" xmlns="http://www.w3.org/2000/svg">
<g opacity="0.3">
<path opacity="0.3" d="M47.4879 16.9506C45.629 16.9488 43.8468 16.2095 42.5325 14.8951C41.2181 13.5807 40.4788 11.7986 40.477 9.93973V0.205566H9.14945C6.72288 0.205566 4.39567 1.16955 2.67982 2.88539C0.963979 4.60124 0 6.92836 0 9.35494V64.5097C0 66.9363 0.963979 69.2635 2.67982 70.9794C4.39567 72.6952 6.72288 73.6592 9.14945 73.6592H46.7534C49.18 73.6592 51.5072 72.6952 53.223 70.9794C54.9389 69.2635 55.9029 66.9363 55.9029 64.5097V16.9506H47.4879Z" fill="#47EF1D"/>
</g>
<path d="M55.9024 16.9506H47.4874C45.6286 16.9488 43.8464 16.2095 42.532 14.8951C41.2176 13.5807 40.4784 11.7986 40.4766 9.93973V0.205566L55.9024 16.9506Z" fill="#47EF1D"/>
<path d="M62.5395 58.213H20.0258C17.0102 58.213 14.5654 60.6577 14.5654 63.6734V76.3486C14.5654 79.3643 17.0102 81.809 20.0258 81.809H62.5395C65.5552 81.809 67.9998 79.3643 67.9998 76.3486V63.6734C67.9998 60.6577 65.5552 58.213 62.5395 58.213Z" fill="#47EF1D"/>
<path d="M29.7262 72.7547V75.2265H27.166V72.7547H29.7262Z" fill="white"/>
<path d="M37.2167 75.2265L35.0646 72.0442L33.2116 75.2265H30.3794L33.6467 69.9633L30.2773 65.0028H33.2116L35.3094 68.0831L37.1182 65.0028H39.9367L36.7135 70.1504L40.1544 75.2265H37.2167Z" fill="white"/>
<path d="M48.0423 73.8394C47.749 74.3089 47.3279 74.6851 46.8285 74.9239C46.2206 75.2086 45.5546 75.3471 44.8837 75.3285C43.8715 75.3709 42.874 75.0755 42.0482 74.4887C41.6828 74.2146 41.384 73.8616 41.1738 73.456C40.9637 73.0505 40.8476 72.6027 40.8343 72.1462H43.4659C43.4847 72.4906 43.6314 72.8155 43.8773 73.0573C44.1221 73.2856 44.4472 73.4078 44.7817 73.3973C44.918 73.4053 45.0546 73.3863 45.1835 73.3414C45.3125 73.2965 45.4313 73.2265 45.5332 73.1355C45.6238 73.0476 45.6952 72.9417 45.7426 72.8246C45.79 72.7075 45.8124 72.5818 45.8085 72.4555C45.8119 72.3357 45.791 72.2164 45.7472 72.1048C45.7034 71.9932 45.6375 71.8917 45.5535 71.8062C45.3735 71.624 45.1599 71.4785 44.9245 71.3778C44.6775 71.269 44.3307 71.1363 43.8841 70.9799C43.3422 70.8013 42.813 70.5867 42.2997 70.3373C41.878 70.12 41.516 69.8025 41.2457 69.4126C40.932 68.9405 40.7772 68.3807 40.8037 67.8146C40.7914 67.2536 40.953 66.7025 41.2661 66.2369C41.5878 65.782 42.0324 65.4282 42.5479 65.2169C43.1422 64.9752 43.7801 64.8595 44.4213 64.8769C45.3949 64.8232 46.3568 65.1106 47.1413 65.6896C47.4753 65.9612 47.7488 66.2996 47.9444 66.6831C48.1399 67.0666 48.2531 67.4867 48.2769 67.9165H45.6011C45.5713 67.6157 45.4421 67.3334 45.2339 67.1142C45.1276 67.0123 45.0016 66.9332 44.8636 66.8817C44.7256 66.8303 44.5786 66.8075 44.4316 66.8149C44.1766 66.8033 43.9262 66.8856 43.7277 67.0462C43.6362 67.133 43.5649 67.2389 43.5191 67.3565C43.4732 67.474 43.4539 67.6003 43.4625 67.7262C43.4573 67.9547 43.5428 68.176 43.7005 68.3415C43.8697 68.5182 44.0734 68.6583 44.2989 68.753C44.5403 68.8584 44.8871 68.9944 45.3393 69.1576C45.891 69.3373 46.4285 69.5577 46.9475 69.8171C47.3714 70.0458 47.7367 70.3693 48.0151 70.7623C48.3324 71.2419 48.4895 71.8097 48.4639 72.3842C48.4593 72.8987 48.3135 73.4021 48.0423 73.8394Z" fill="white"/>
<path d="M52.3024 73.3328H55.614V75.2265H49.834V65.0028H52.3092L52.3024 73.3328Z" fill="white"/>
<path d="M40.4228 51.4912H15.494C13.335 51.4912 11.5771 49.3424 11.5771 46.6972V28.6126C11.5771 25.9708 13.335 23.822 15.494 23.822H40.433C42.5886 23.822 44.3464 25.9708 44.3464 28.6126V46.6972C44.3362 49.3424 42.5784 51.4912 40.4228 51.4912ZM15.494 26.2699C14.4366 26.2699 13.5798 27.3206 13.5798 28.6126V46.6972C13.5798 47.9892 14.4366 49.0397 15.494 49.0397H40.433C41.487 49.0397 42.3437 47.9892 42.3437 46.6972V28.6126C42.3437 27.3206 41.487 26.2699 40.433 26.2699H15.494Z" fill="#47EF1D"/>
<path d="M43.3359 40.601H12.5693V43.0524H43.3359V40.601Z" fill="#47EF1D"/>
<path d="M43.3359 32.1962H12.5693V34.6476H43.3359V32.1962Z" fill="#47EF1D"/>
<path d="M35.4553 25.046H33.0039V50.2638H35.4553V25.046Z" fill="#47EF1D"/>
<path d="M22.8987 25.046H20.4473V50.2638H22.8987V25.046Z" fill="#47EF1D"/>
</svg>
