<svg width="22" height="26" viewBox="0 0 22 26" fill="none" xmlns="http://www.w3.org/2000/svg">
<path d="M15.5885 6.53027L6.58071 11.5M6.58071 14.7774L15.5885 19.4707M7.06738 13.1387C7.06738 14.7955 5.72424 16.1387 4.06738 16.1387C2.41053 16.1387 1.06738 14.7955 1.06738 13.1387C1.06738 11.4818 2.41053 10.1387 4.06738 10.1387C5.72424 10.1387 7.06738 11.4818 7.06738 13.1387ZM20.9316 4.65674C20.9316 6.31359 19.5885 7.65674 17.9316 7.65674C16.2748 7.65674 14.9316 6.31359 14.9316 4.65674C14.9316 2.99988 16.2748 1.65674 17.9316 1.65674C19.5885 1.65674 20.9316 2.99988 20.9316 4.65674ZM20.9326 21.343C20.9326 22.9999 19.5895 24.343 17.9326 24.343C16.2758 24.343 14.9326 22.9999 14.9326 21.343C14.9326 19.6862 16.2758 18.343 17.9326 18.343C19.5895 18.343 20.9326 19.6862 20.9326 21.343Z" stroke="white" stroke-width="2" stroke-linecap="round"/>
</svg>
