<svg width="36" height="36" viewBox="0 0 36 36" fill="none" xmlns="http://www.w3.org/2000/svg">
<path d="M21.3673 13.4704C19.3805 14.4243 17.5184 15.7247 15.8715 17.3715C14.2247 19.0184 12.9243 20.8805 11.9704 22.8673C11.8883 23.0382 11.8473 23.1236 11.8158 23.2317C11.7038 23.616 11.7842 24.0878 12.0172 24.4132C12.0828 24.5048 12.1612 24.5831 12.3178 24.7398C12.797 25.219 13.0366 25.4585 13.1932 25.6995C13.7839 26.608 13.7839 27.7792 13.1932 28.6878C13.0366 28.9287 12.797 29.1683 12.3178 29.6474L12.0507 29.9145C11.3224 30.6429 10.9582 31.0071 10.567 31.2049C9.78917 31.5984 8.87053 31.5984 8.09265 31.2049C7.70151 31.0071 7.33732 30.6429 6.60895 29.9145L6.3929 29.6985C5.66702 28.9726 5.30408 28.6096 5.02688 28.1162C4.7193 27.5686 4.49814 26.7182 4.50001 26.0902C4.5017 25.5242 4.61148 25.1374 4.83106 24.3638C6.01107 20.2063 8.23752 16.2833 11.5104 13.0104C14.7833 9.73752 18.7063 7.51107 22.8638 6.33106C23.6374 6.11148 24.0242 6.00169 24.5902 6.00001C25.2182 5.99814 26.0686 6.2193 26.6162 6.52688C27.1096 6.80408 27.4726 7.16702 28.1985 7.8929L28.4145 8.10895C29.1429 8.83733 29.5071 9.20152 29.7049 9.59265C30.0984 10.3705 30.0984 11.2892 29.7049 12.0671C29.5071 12.4582 29.1429 12.8224 28.4145 13.5507L28.1474 13.8178C27.6683 14.297 27.4287 14.5366 27.1878 14.6932C26.2792 15.2839 25.108 15.2839 24.1995 14.6932C23.9585 14.5366 23.719 14.297 23.2398 13.8178C23.0831 13.6612 23.0048 13.5828 22.9132 13.5173C22.5878 13.2842 22.116 13.2038 21.7317 13.3158C21.6236 13.3473 21.5382 13.3883 21.3673 13.4704Z" stroke="white" stroke-width="2" stroke-linecap="round" stroke-linejoin="round"/>
</svg>
