<svg width="24" height="18" viewBox="0 0 24 18" fill="none" xmlns="http://www.w3.org/2000/svg">
<path d="M17.5 5L21.0975 2.33248C21.2031 2.25419 21.3229 2.19104 21.4542 2.1847C22.0098 2.15786 22.5 2.60151 22.5 3.18404V14.6225C22.5 15.2112 21.9994 15.658 21.4365 15.6208C21.3168 15.6129 21.2069 15.5577 21.1081 15.4896L17.5 13M7.9 17H11.1C13.3402 17 14.4603 17 15.316 16.564C16.0686 16.1805 16.6805 15.5686 17.064 14.816C17.5 13.9603 17.5 12.8402 17.5 10.6V7.4C17.5 5.15979 17.5 4.03968 17.064 3.18404C16.6805 2.43139 16.0686 1.81947 15.316 1.43597C14.4603 1 13.3402 1 11.1 1H7.9C5.65979 1 4.53968 1 3.68404 1.43597C2.93139 1.81947 2.31947 2.43139 1.93597 3.18404C1.5 4.03968 1.5 5.15979 1.5 7.4V10.6C1.5 12.8402 1.5 13.9603 1.93597 14.816C2.31947 15.5686 2.93139 16.1805 3.68404 16.564C4.53968 17 5.65979 17 7.9 17Z" stroke="#374151" stroke-width="2" stroke-linecap="round"/>
</svg>
