<svg width="43" height="52" viewBox="0 0 43 52" fill="none" xmlns="http://www.w3.org/2000/svg">
<g opacity="0.3">
<path opacity="0.3" d="M30.029 10.9867C28.8536 10.9856 27.7266 10.5181 26.8955 9.68693C26.0643 8.85578 25.5969 7.72881 25.5957 6.55337V0.397949H5.78564C4.25119 0.397949 2.7796 1.00752 1.69458 2.09254C0.609562 3.17756 0 4.64913 0 6.18358V41.0609C0.00227865 42.5938 0.61284 44.0632 1.69761 45.1464C2.78239 46.2296 4.25268 46.8379 5.78564 46.8379H29.5668C31.0998 46.8379 32.5701 46.2296 33.6548 45.1464C34.7396 44.0632 35.3502 42.5938 35.3524 41.0609V10.9867H30.029Z" fill="#FF3E4C"/>
</g>
<path d="M35.3524 10.9867H30.029C28.8536 10.9856 27.7266 10.5181 26.8954 9.68693C26.0643 8.85578 25.5968 7.72881 25.5957 6.55337V0.397949L35.3524 10.9867Z" fill="#FF3E4C"/>
<path d="M28.079 32.8286H5.88242C5.66859 32.8286 5.46351 32.7437 5.31231 32.5925C5.16111 32.4413 5.07617 32.2362 5.07617 32.0224C5.07674 31.8089 5.16193 31.6044 5.31307 31.4536C5.46421 31.3029 5.66896 31.2183 5.88242 31.2183H28.079C28.2923 31.2183 28.4968 31.3029 28.6476 31.4537C28.7984 31.6045 28.8831 31.8091 28.8831 32.0224C28.8834 32.1281 28.8628 32.2329 28.8225 32.3307C28.7822 32.4285 28.7231 32.5174 28.6484 32.5923C28.5737 32.6672 28.4849 32.7267 28.3872 32.7672C28.2895 32.8077 28.1848 32.8286 28.079 32.8286Z" fill="#FF3E4C"/>
<path d="M28.079 23.7471H5.88242C5.66896 23.7471 5.46421 23.6624 5.31307 23.5116C5.16193 23.3609 5.07674 23.1564 5.07617 22.943C5.07617 22.7291 5.16111 22.524 5.31231 22.3728C5.46351 22.2216 5.66859 22.1367 5.88242 22.1367H28.079C28.1848 22.1367 28.2895 22.1576 28.3872 22.1981C28.4849 22.2387 28.5737 22.2981 28.6484 22.373C28.7231 22.4479 28.7822 22.5368 28.8225 22.6346C28.8628 22.7324 28.8834 22.8372 28.8831 22.943C28.8831 23.1562 28.7984 23.3607 28.6476 23.5115C28.4968 23.6623 28.2923 23.7471 28.079 23.7471Z" fill="#FF3E4C"/>
<path d="M28.079 28.2878H5.88242C5.66859 28.2878 5.46351 28.2029 5.31231 28.0517C5.16111 27.9005 5.07617 27.6954 5.07617 27.4816C5.07674 27.2681 5.16193 27.0636 5.31307 26.9129C5.46421 26.7621 5.66896 26.6775 5.88242 26.6775H28.079C28.2923 26.6775 28.4968 26.7622 28.6476 26.913C28.7984 27.0638 28.8831 27.2683 28.8831 27.4816C28.8834 27.5874 28.8628 27.6922 28.8225 27.79C28.7822 27.8878 28.7231 27.9767 28.6484 28.0516C28.5737 28.1265 28.4849 28.1859 28.3872 28.2264C28.2895 28.267 28.1848 28.2878 28.079 28.2878Z" fill="#FF3E4C"/>
<path d="M19.3242 19.2061H5.88242C5.66896 19.2061 5.46421 19.1214 5.31307 18.9707C5.16193 18.8199 5.07674 18.6154 5.07617 18.402C5.07617 18.1881 5.16111 17.9831 5.31231 17.8319C5.46351 17.6807 5.66859 17.5957 5.88242 17.5957H19.3242C19.5377 17.5963 19.7422 17.6815 19.8929 17.8326C20.0437 17.9837 20.1283 18.1885 20.1283 18.402C20.1278 18.615 20.0429 18.8192 19.8922 18.9699C19.7415 19.1206 19.5373 19.2055 19.3242 19.2061Z" fill="#FF3E4C"/>
<path d="M19.3242 14.6653H5.88242C5.66896 14.6653 5.46421 14.5806 5.31307 14.4299C5.16193 14.2791 5.07674 14.0746 5.07617 13.8612C5.07617 13.6474 5.16111 13.4422 5.31231 13.291C5.46351 13.1398 5.66859 13.0549 5.88242 13.0549H19.3242C19.5377 13.0555 19.7422 13.1407 19.8929 13.2918C20.0437 13.443 20.1283 13.6477 20.1283 13.8612C20.1278 14.0743 20.0429 14.2785 19.8922 14.4291C19.7415 14.5798 19.5373 14.6647 19.3242 14.6653Z" fill="#FF3E4C"/>
<path d="M39.5469 37.0791H12.6633C10.7564 37.0791 9.21045 38.625 9.21045 40.532V48.5472C9.21045 50.4542 10.7564 52.0001 12.6633 52.0001H39.5469C41.4539 52.0001 42.9998 50.4542 42.9998 48.5472V40.532C42.9998 38.625 41.4539 37.0791 39.5469 37.0791Z" fill="#FF3E4C"/>
<path d="M18.0299 46.2747V47.8377H16.4131V46.2747H18.0299Z" fill="white"/>
<path d="M20.4078 45.5694V47.8376H18.8447V41.3726H21.3774C22.145 41.3726 22.7319 41.5639 23.134 41.9444C23.3374 42.1444 23.4962 42.3851 23.6 42.6507C23.7038 42.9164 23.7501 43.2011 23.736 43.486C23.7438 43.8619 23.651 44.233 23.4672 44.561C23.2795 44.8816 23.0013 45.1397 22.6674 45.3028C22.2647 45.4931 21.8226 45.5852 21.3774 45.5715L20.4078 45.5694ZM22.145 43.486C22.145 42.9126 21.8311 42.626 21.2033 42.626H20.4078V44.3094H21.2033C21.8311 44.3152 22.145 44.0407 22.145 43.486Z" fill="white"/>
<path d="M29.9131 46.2788C29.6439 46.7677 29.2373 47.1668 28.7435 47.4269C28.1879 47.7114 27.5701 47.8525 26.9461 47.8376H24.5059V41.3725H26.9461C27.5706 41.3568 28.1893 41.4949 28.7478 41.7746C29.2402 42.0291 29.6458 42.4242 29.9131 42.9098C30.1929 43.4253 30.3336 44.0047 30.3216 44.5911C30.3333 45.1795 30.1926 45.7609 29.9131 46.2788ZM28.2318 45.9542C28.4066 45.7748 28.542 45.5609 28.6294 45.3262C28.7167 45.0914 28.7541 44.8411 28.7392 44.5911C28.7542 44.3414 28.7169 44.0913 28.6295 43.8569C28.5421 43.6225 28.4066 43.409 28.2318 43.2301C27.8408 42.887 27.3299 42.7123 26.8107 42.7442H26.0689V46.4379H26.8107C27.3295 46.4694 27.84 46.2957 28.2318 45.9542Z" fill="white"/>
<path d="M35.4232 41.3726V42.6174H32.7722V44.0342H34.819V45.2232H32.7722V47.8376H31.207V41.3726H35.4232Z" fill="white"/>
<path d="M27.6855 13.0549H23.8843C23.2217 13.0549 22.6846 13.5921 22.6846 14.2546V18.0558C22.6846 18.7184 23.2217 19.2555 23.8843 19.2555H27.6855C28.348 19.2555 28.8852 18.7184 28.8852 18.0558V14.2546C28.8852 13.5921 28.348 13.0549 27.6855 13.0549Z" fill="#FF3E4C"/>
</svg>
