<svg width="68" height="83" viewBox="0 0 68 83" fill="none" xmlns="http://www.w3.org/2000/svg">
<g opacity="0.3">
<path opacity="0.3" d="M47.4859 17.3465C45.6271 17.3447 43.845 16.6055 42.5307 15.2911C41.2163 13.9768 40.4772 12.1947 40.4754 10.3359V0.602173H9.15244C7.95069 0.601727 6.7606 0.838003 5.65019 1.29758C4.53979 1.75717 3.53084 2.43103 2.68092 3.28064C1.83099 4.13025 1.15677 5.13898 0.696781 6.24921C0.236786 7.35945 -8.29771e-08 8.54942 0 9.75117V64.9037C-8.2977e-08 66.1055 0.236786 67.2955 0.696781 68.4057C1.15677 69.516 1.83099 70.5247 2.68092 71.3743C3.53084 72.2239 4.53979 72.8977 5.65019 73.3573C6.7606 73.8169 7.95069 74.0532 9.15244 74.0528H46.7549C47.9564 74.0528 49.1461 73.8162 50.2561 73.3564C51.3661 72.8966 52.3747 72.2226 53.2243 71.3731C54.0738 70.5235 54.7477 69.5149 55.2075 68.4049C55.6673 67.2949 55.9039 66.1052 55.9039 64.9037V17.3465H47.4859Z" fill="#211DEF"/>
</g>
<path d="M55.9032 17.3465H47.4851C45.6264 17.3447 43.8443 16.6055 42.5299 15.2911C41.2156 13.9768 40.4764 12.1947 40.4746 10.3359V0.602173L55.9032 17.3465Z" fill="#211DEF"/>
<path d="M44.403 29.0694H9.3028C8.96556 29.0694 8.64216 28.9354 8.4037 28.6969C8.16523 28.4585 8.03125 28.1351 8.03125 27.7978C8.03081 27.6306 8.06338 27.4648 8.12708 27.3102C8.19078 27.1555 8.28437 27.0149 8.40249 26.8965C8.52061 26.7781 8.66095 26.6841 8.81544 26.62C8.96993 26.5559 9.13553 26.5229 9.3028 26.5229H44.403C44.7411 26.5229 45.0654 26.6572 45.3045 26.8963C45.5436 27.1354 45.678 27.4597 45.678 27.7978C45.6771 28.1354 45.5423 28.4588 45.3033 28.6972C45.0643 28.9356 44.7406 29.0694 44.403 29.0694Z" fill="#211DEF"/>
<path d="M44.403 36.6746H9.3028C8.96556 36.6746 8.64216 36.5406 8.4037 36.3022C8.16523 36.0637 8.03125 35.7403 8.03125 35.4031C8.03081 35.2358 8.06338 35.0701 8.12708 34.9154C8.19078 34.7607 8.28437 34.6202 8.40249 34.5017C8.52061 34.3833 8.66095 34.2893 8.81544 34.2252C8.96993 34.1611 9.13553 34.1281 9.3028 34.1281H44.403C44.7411 34.1281 45.0654 34.2624 45.3045 34.5015C45.5436 34.7406 45.678 35.0649 45.678 35.4031C45.6771 35.7406 45.5423 36.064 45.3033 36.3023C45.0643 36.5407 44.7406 36.6746 44.403 36.6746Z" fill="#211DEF"/>
<path d="M44.403 44.2804H9.3028C9.13553 44.2804 8.96993 44.2474 8.81544 44.1833C8.66095 44.1192 8.52061 44.0252 8.40249 43.9068C8.28437 43.7883 8.19078 43.6477 8.12708 43.4931C8.06338 43.3384 8.03081 43.1727 8.03125 43.0054C8.03125 42.6682 8.16523 42.3448 8.4037 42.1063C8.64216 41.8679 8.96556 41.7339 9.3028 41.7339H44.403C44.7406 41.7339 45.0643 41.8677 45.3033 42.1061C45.5423 42.3444 45.6771 42.6679 45.678 43.0054C45.678 43.3436 45.5436 43.6678 45.3045 43.9069C45.0654 44.146 44.7411 44.2804 44.403 44.2804Z" fill="#211DEF"/>
<path d="M30.5587 51.8858H9.3028C9.13553 51.8858 8.96993 51.8528 8.81544 51.7887C8.66095 51.7246 8.52061 51.6306 8.40249 51.5122C8.28437 51.3937 8.19078 51.2532 8.12708 51.0986C8.06338 50.9439 8.03081 50.7782 8.03125 50.6109C8.03125 50.2737 8.16523 49.9502 8.4037 49.7117C8.64216 49.4733 8.96556 49.3394 9.3028 49.3394H30.5587C30.896 49.3394 31.2194 49.4733 31.4579 49.7117C31.6963 49.9502 31.8303 50.2737 31.8303 50.6109C31.8307 50.7782 31.7982 50.9439 31.7345 51.0986C31.6708 51.2532 31.5772 51.3937 31.4591 51.5122C31.341 51.6306 31.2006 51.7246 31.0461 51.7887C30.8916 51.8528 30.726 51.8858 30.5587 51.8858Z" fill="#211DEF"/>
<path d="M62.5404 58.607H20.0285C17.0129 58.607 14.5684 61.0516 14.5684 64.0671V76.7418C14.5684 79.7574 17.0129 82.202 20.0285 82.202H62.5404C65.556 82.202 68.0005 79.7574 68.0005 76.7418V64.0671C68.0005 61.0516 65.556 58.607 62.5404 58.607Z" fill="#211DEF"/>
<path d="M25.9136 73.1481V75.6198H23.3535V73.1481H25.9136Z" fill="white"/>
<path d="M35.7533 73.1551C35.3276 73.9281 34.6846 74.5594 33.9038 74.9707C33.0251 75.42 32.0481 75.6432 31.0615 75.62H27.1992V65.3967H31.0615C32.0489 65.3723 33.0272 65.5905 33.9105 66.0324C34.6882 66.4362 35.3293 67.0607 35.7533 67.8275C36.1929 68.6437 36.4142 69.5595 36.3959 70.4863C36.4134 71.4162 36.1921 72.335 35.7533 73.1551ZM33.0946 72.6417C33.371 72.358 33.5851 72.0198 33.7232 71.6487C33.8614 71.2775 33.9206 70.8816 33.897 70.4863C33.9207 70.0914 33.8616 69.6959 33.7234 69.3253C33.5853 68.9546 33.3711 68.617 33.0946 68.3341C32.4752 67.791 31.6661 67.5148 30.8439 67.5658H29.6777V73.4067H30.8473C31.6677 73.4562 32.4748 73.1815 33.0946 72.6417Z" fill="white"/>
<path d="M45.2828 65.9101C46.0606 66.3519 46.7035 66.9972 47.1425 67.7766C47.6024 68.5998 47.837 69.5298 47.8225 70.4727C47.838 71.4179 47.6034 72.3503 47.1425 73.1756C46.7021 73.958 46.0568 74.6057 45.276 75.0489C44.4812 75.5028 43.5801 75.7374 42.6649 75.7289C41.7497 75.737 40.8488 75.5023 40.0538 75.0489C39.2731 74.6066 38.6287 73.9586 38.1907 73.1756C37.7282 72.3509 37.4935 71.418 37.5107 70.4727C37.4931 69.5295 37.7278 68.5987 38.1907 67.7766C38.6309 66.997 39.275 66.3518 40.0538 65.9101C40.8488 65.4567 41.7497 65.2221 42.6649 65.2301C43.5822 65.2215 44.4855 65.4561 45.2828 65.9101ZM40.7269 68.324C40.2254 68.9239 39.9702 69.6919 40.013 70.4727C39.9701 71.2504 40.2254 72.0153 40.7269 72.6112C40.9713 72.8768 41.2707 73.0855 41.6043 73.223C41.938 73.3604 42.2976 73.4231 42.6581 73.4067C43.0174 73.4221 43.3757 73.359 43.7081 73.2216C44.0405 73.0842 44.3388 72.8759 44.5824 72.6112C45.0863 72.0163 45.3441 71.2513 45.3031 70.4727C45.344 69.6953 45.0889 68.9312 44.5892 68.3342C44.345 68.0685 44.0456 67.8596 43.7119 67.7221C43.3783 67.5847 43.0186 67.522 42.6581 67.5386C42.2986 67.5221 41.9397 67.5838 41.6063 67.7194C41.2729 67.855 40.9729 68.0612 40.7269 68.324Z" fill="white"/>
<path d="M57.1103 66.3218C57.9726 67.0234 58.5591 68.0072 58.7661 69.0994H56.1482C55.9716 68.6468 55.6623 68.258 55.2608 67.9842C54.8377 67.7087 54.3411 67.5677 53.8363 67.5797C53.503 67.569 53.1716 67.6352 52.868 67.7732C52.5644 67.9111 52.2966 68.1172 52.0854 68.3753C51.6119 68.9808 51.3707 69.7357 51.4054 70.5036C51.3708 71.2683 51.6121 72.02 52.0854 72.6217C52.2983 72.8772 52.5666 73.0807 52.8701 73.2168C53.1735 73.3529 53.504 73.4179 53.8363 73.407C54.3413 73.4205 54.8383 73.2793 55.2608 73.0024C55.66 72.7336 55.9692 72.351 56.1482 71.9043H58.7661C58.5557 72.9933 57.9697 73.974 57.1103 74.6752C56.1855 75.3813 55.0431 75.7421 53.8805 75.6952C52.9644 75.7145 52.0601 75.4866 51.2626 75.0356C50.5162 74.6017 49.9106 73.962 49.5185 73.1929C49.097 72.3492 48.887 71.4158 48.9065 70.473C48.8873 69.5302 49.0973 68.5968 49.5185 67.7531C49.9106 66.984 50.5162 66.3442 51.2626 65.9104C52.0601 65.4593 52.9644 65.2314 53.8805 65.2507C55.0491 65.2198 56.1917 65.5987 57.1103 66.3218Z" fill="white"/>
</svg>
