<svg width="20" height="21" viewBox="0 0 20 21" fill="none" xmlns="http://www.w3.org/2000/svg">
<path d="M11 1.5C11 0.947715 10.5523 0.5 10 0.5C9.44771 0.5 9 0.947715 9 1.5L11 1.5ZM9 12.5C9 13.0523 9.44772 13.5 10 13.5C10.5523 13.5 11 13.0523 11 12.5H9ZM14.7071 11.2071C15.0976 10.8166 15.0976 10.1834 14.7071 9.79289C14.3166 9.40237 13.6834 9.40237 13.2929 9.79289L14.7071 11.2071ZM10.7071 13.7929L10 13.0858L10.7071 13.7929ZM9.29289 13.7929L10 13.0858H10L9.29289 13.7929ZM6.70711 9.79289C6.31658 9.40237 5.68342 9.40237 5.29289 9.79289C4.90237 10.1834 4.90237 10.8166 5.29289 11.2071L6.70711 9.79289ZM2 14.5C2 13.9477 1.55228 13.5 1 13.5C0.447715 13.5 0 13.9477 0 14.5H2ZM20 14.5C20 13.9477 19.5523 13.5 19 13.5C18.4477 13.5 18 13.9477 18 14.5H20ZM17.362 19.173L16.908 18.282H16.908L17.362 19.173ZM18.673 17.862L19.564 18.316L18.673 17.862ZM1.32698 17.862L0.435974 18.316L1.32698 17.862ZM2.63803 19.173L2.18404 20.064H2.18404L2.63803 19.173ZM9 1.5L9 12.5H11L11 1.5L9 1.5ZM13.2929 9.79289L10 13.0858L11.4142 14.5L14.7071 11.2071L13.2929 9.79289ZM10 13.0858L6.70711 9.79289L5.29289 11.2071L8.58579 14.5L10 13.0858ZM10 13.0858H10L8.58579 14.5C9.36683 15.281 10.6332 15.281 11.4142 14.5L10 13.0858ZM0 14.5V14.7H2V14.5H0ZM5.8 20.5H14.2V18.5H5.8V20.5ZM20 14.7V14.5H18V14.7H20ZM14.2 20.5C15.0236 20.5 15.7014 20.5008 16.2518 20.4558C16.8139 20.4099 17.3306 20.3113 17.816 20.064L16.908 18.282C16.7516 18.3617 16.5274 18.4266 16.089 18.4624C15.6389 18.4992 15.0566 18.5 14.2 18.5V20.5ZM18 14.7C18 15.5566 17.9992 16.1389 17.9624 16.589C17.9266 17.0274 17.8617 17.2516 17.782 17.408L19.564 18.316C19.8113 17.8306 19.9099 17.3139 19.9558 16.7518C20.0008 16.2014 20 15.5236 20 14.7H18ZM17.816 20.064C18.5686 19.6805 19.1805 19.0686 19.564 18.316L17.782 17.408C17.5903 17.7843 17.2843 18.0903 16.908 18.282L17.816 20.064ZM0 14.7C0 15.5236 -0.000777721 16.2014 0.0441936 16.7518C0.0901188 17.3139 0.188683 17.8306 0.435974 18.316L2.21799 17.408C2.1383 17.2516 2.07337 17.0274 2.03755 16.589C2.00078 16.1389 2 15.5566 2 14.7H0ZM5.8 18.5C4.94342 18.5 4.36113 18.4992 3.91104 18.4624C3.47262 18.4266 3.24842 18.3617 3.09202 18.282L2.18404 20.064C2.66937 20.3113 3.18608 20.4099 3.74817 20.4558C4.2986 20.5008 4.97642 20.5 5.8 20.5V18.5ZM0.435974 18.316C0.819468 19.0686 1.43139 19.6805 2.18404 20.064L3.09202 18.282C2.71569 18.0903 2.40973 17.7843 2.21799 17.408L0.435974 18.316Z" fill="#B6C2E1"/>
</svg>
