<svg width="68" height="83" viewBox="0 0 68 83" fill="none" xmlns="http://www.w3.org/2000/svg">
<g opacity="0.3">
<path opacity="0.3" d="M47.4878 17.3438C45.629 17.342 43.8468 16.6028 42.5324 15.2884C41.218 13.974 40.4789 12.1918 40.4771 10.333V0.602173H9.14938C6.7234 0.602173 4.39674 1.56566 2.68099 3.28078C0.96524 4.99589 0.000901518 7.32221 0 9.74819V64.903C0.00270324 67.3279 0.967842 69.6524 2.6834 71.3661C4.39895 73.0797 6.72457 74.0423 9.14938 74.0423H46.7535C47.9553 74.0427 49.1454 73.8064 50.2558 73.3468C51.3663 72.8872 52.3753 72.2133 53.2253 71.3637C54.0752 70.514 54.7495 69.5052 55.2095 68.395C55.6695 67.2847 55.9062 66.0947 55.9062 64.8929V17.3438H47.4878Z" fill="#A140FF"/>
</g>
<path d="M55.9057 17.3438H47.4873C45.6285 17.342 43.8463 16.6028 42.5319 15.2884C41.2175 13.974 40.4784 12.1918 40.4766 10.333V0.602173L55.9057 17.3438Z" fill="#A140FF"/>
<path d="M62.5394 58.6062H20.0258C17.0101 58.6062 14.5654 61.051 14.5654 64.0667V76.7418C14.5654 79.7575 17.0101 82.2023 20.0258 82.2023H62.5394C65.5551 82.2023 67.9999 79.7575 67.9999 76.7418V64.0667C67.9999 61.051 65.5551 58.6062 62.5394 58.6062Z" fill="#A140FF"/>
<path d="M26.7204 73.1481V75.6199H24.1602V73.1481H26.7204Z" fill="white"/>
<path d="M39.5052 65.4709V75.6199H37.0334V69.2823L34.8336 75.6301H32.695L30.4816 69.2687V75.6301H28.0098V65.4811H31.0324L33.7932 72.5497L36.5132 65.4811L39.5052 65.4709Z" fill="white"/>
<path d="M43.6837 72.0363V75.6199H41.2119V65.3961H45.2205C46.4343 65.3961 47.3625 65.6987 47.9983 66.3005C48.32 66.6166 48.5713 66.9973 48.7353 67.4175C48.8994 67.8376 48.9727 68.2878 48.9503 68.7383C48.962 69.3326 48.8154 69.9194 48.5253 70.4383C48.2283 70.9444 47.7883 71.3513 47.2605 71.6079C46.624 71.9101 45.9248 72.0569 45.2205 72.0363H43.6837ZM46.431 68.7383C46.431 67.8316 45.9345 67.3783 44.9417 67.3783H43.6837V70.0405H44.9417C45.9345 70.0496 46.431 69.6155 46.431 68.7383Z" fill="white"/>
<path d="M49.9463 73.7396V71.6622L54.6179 65.2566H57.2767V71.5772H58.5076V73.7294H57.2767V75.6096H54.7744V73.7294L49.9463 73.7396ZM54.9783 68.1296L52.4623 71.5874H54.9783V68.1296Z" fill="white"/>
<path d="M40.6101 45.4516V29.2302C40.6092 29.1515 40.6013 29.0729 40.5863 28.9956C40.5827 28.9725 40.577 28.9497 40.5693 28.9276C40.557 28.8745 40.5411 28.8222 40.5217 28.7712C40.5129 28.7479 40.5027 28.7252 40.4911 28.7032C40.4703 28.6536 40.4453 28.6058 40.4163 28.5604L40.3823 28.506C40.3395 28.4444 40.2917 28.3864 40.2395 28.3326L40.2157 28.3122C40.1694 28.2686 40.1206 28.2278 40.0695 28.1898L40.0083 28.1524L39.8723 28.0776L39.8009 28.047C39.7477 28.0264 39.6932 28.0094 39.6377 27.996H39.5833C39.5061 27.9797 39.4275 27.9717 39.3487 27.9722H16.4463C16.1315 28.001 15.8388 28.1463 15.6256 28.3797C15.4124 28.613 15.294 28.9176 15.2936 29.2336C15.2936 29.254 15.2936 29.271 15.2936 29.2914V45.5094C15.2854 45.7182 15.3517 45.9231 15.4807 46.0875C15.5922 46.2759 15.7509 46.432 15.941 46.5405C16.1312 46.649 16.3463 46.7061 16.5652 46.7062H39.3453C39.6784 46.7045 39.9976 46.5721 40.2341 46.3375C40.4706 46.1028 40.6056 45.7848 40.6101 45.4516ZM16.6605 31.0254V28.5638H18.663V31.0254H16.6605ZM20.04 31.0254V28.5638H22.0427V31.0254H20.04ZM23.4196 31.0254V28.5638H25.4223V31.0254H23.4196ZM26.7993 31.0254V28.5638H28.8019V31.0254H26.7993ZM30.1789 31.0254V28.5638H32.1814V31.0254H30.1789ZM33.5585 31.0254V28.5638H35.5611V31.0254H33.5585ZM36.938 31.0254V28.5638H38.9407V31.0254H36.938ZM16.198 42.9628V31.6918H39.7363V42.9628H16.198ZM16.6571 46.0875V43.6258H18.6596V46.0875H16.6571ZM20.0366 46.0875V43.6258H22.0393V46.0875H20.0366ZM23.4163 46.0875V43.6258H25.4189V46.0875H23.4163ZM26.7959 46.0875V43.6258H28.7985V46.0875H26.7959ZM30.1755 46.0875V43.6258H32.178V46.0875H30.1755ZM33.5551 46.0875V43.6258H35.5577V46.0875H33.5551ZM36.9346 46.0875V43.6258H38.9373V46.0875H36.9346Z" fill="#A140FF"/>
<path d="M30.6747 36.4926L27.4209 34.6124C27.2526 34.516 27.0619 34.4655 26.868 34.4659C26.674 34.4663 26.4835 34.5175 26.3155 34.6146C26.1476 34.7116 26.0081 34.8511 25.9109 35.0189C25.8137 35.1868 25.7623 35.3772 25.7617 35.5712V39.3316C25.7623 39.5256 25.8137 39.716 25.9109 39.8839C26.0081 40.0518 26.1476 40.1912 26.3155 40.2883C26.4835 40.3853 26.674 40.4366 26.868 40.437C27.0619 40.4374 27.2526 40.3868 27.4209 40.2904L30.6747 38.4102C30.8427 38.3128 30.9821 38.1729 31.079 38.0047C31.176 37.8364 31.227 37.6456 31.227 37.4514C31.227 37.2572 31.176 37.0665 31.079 36.8982C30.9821 36.7299 30.8427 36.5901 30.6747 36.4926Z" fill="#A140FF"/>
</svg>
