<svg width="63" height="33" viewBox="0 0 63 33" fill="none" xmlns="http://www.w3.org/2000/svg">
<rect width="2.07692" height="18.9247" rx="1.03846" transform="matrix(-1 0 0 1 2.0769 7.0376)" fill="#B6C2E1"/>
<rect width="2.07692" height="27.871" rx="1.03846" transform="matrix(-1 0 0 1 7.61548 2.56458)" fill="#B6C2E1"/>
<rect width="2.07692" height="12.7312" rx="1.03846" transform="matrix(-1 0 0 1 13.1538 10.1344)" fill="#B6C2E1"/>
<rect width="2.07692" height="4.47312" rx="1.03846" transform="matrix(-1 0 0 1 18.6924 14.2634)" fill="#B6C2E1"/>
<rect width="2.07692" height="21.3333" rx="1.03846" transform="matrix(-1 0 0 1 24.2307 5.83337)" fill="#B6C2E1"/>
<rect width="2.07692" height="26.4946" rx="1.03846" transform="matrix(-1 0 0 1 29.7693 3.25269)" fill="#B6C2E1"/>
<rect width="2.07692" height="15.828" rx="1.03846" transform="matrix(-1 0 0 1 35.3076 8.58606)" fill="#B6C2E1"/>
<rect width="2.07692" height="11.0108" rx="1.03846" transform="matrix(-1 0 0 1 40.8462 10.9946)" fill="#B6C2E1"/>
<rect width="2.07692" height="27.871" rx="1.03846" transform="matrix(-1 0 0 1 46.3845 2.56458)" fill="#B6C2E1"/>
<rect width="2.07692" height="32" rx="1.03846" transform="matrix(-1 0 0 1 51.9231 0.5)" fill="#B6C2E1"/>
<rect width="2.07692" height="27.871" rx="1.03846" transform="matrix(-1 0 0 1 57.4614 2.56458)" fill="#B6C2E1"/>
<rect width="2.07692" height="15.1398" rx="1.03846" transform="matrix(-1 0 0 1 63 8.93005)" fill="#B6C2E1"/>
</svg>
