<svg width="20" height="20" viewBox="0 0 20 20" fill="none" xmlns="http://www.w3.org/2000/svg">
<path d="M16.6665 6.66686V13.3531C16.6665 14.0668 16.6665 14.4237 16.5303 14.6964C16.4104 14.9362 16.2192 15.1312 15.984 15.2534C15.7166 15.3923 15.3666 15.3923 14.6665 15.3923C14.3904 15.3923 14.1665 15.6161 14.1665 15.8923V16.6618C14.1665 16.9247 13.8652 17.0736 13.6563 16.9139L12.3836 15.9407C12.1177 15.7373 11.9846 15.6355 11.8377 15.5633C11.7073 15.4992 11.5691 15.4524 11.4266 15.4241C11.266 15.3923 11.0986 15.3923 10.7637 15.3923H7.49982M3.6665 3.9707H12.1665C12.8666 3.9707 13.2166 3.9707 13.484 4.10962C13.7192 4.23181 13.9104 4.42678 14.0303 4.6666C14.1665 4.93923 14.1665 5.29613 14.1665 6.00992V10.8531C14.1665 11.5668 14.1665 11.9237 14.0303 12.1964C13.9104 12.4362 13.7192 12.6312 13.484 12.7534C13.2166 12.8923 12.8666 12.8923 12.1665 12.8923H7.56926C7.23441 12.8923 7.06699 12.8923 6.90639 12.9241C6.76388 12.9524 6.62568 12.9992 6.49531 13.0633C6.34838 13.1355 6.21537 13.2373 5.94939 13.4407L4.67668 14.4139C4.46784 14.5736 4.1665 14.4247 4.1665 14.1618V13.3923C4.1665 13.1161 3.94265 12.8923 3.6665 12.8923C2.96644 12.8923 2.61641 12.8923 2.34902 12.7534C2.11381 12.6312 1.92259 12.4362 1.80275 12.1964C1.6665 11.9237 1.6665 11.5668 1.6665 10.8531V6.00992C1.6665 5.29613 1.6665 4.93923 1.80275 4.6666C1.92259 4.42678 2.11381 4.23181 2.34902 4.10962C2.61641 3.9707 2.96644 3.9707 3.6665 3.9707Z" stroke="#9E9CEF" stroke-linecap="round"/>
</svg>
