<svg width="43" height="52" viewBox="0 0 43 52" fill="none" xmlns="http://www.w3.org/2000/svg">
<g opacity="0.3">
<path opacity="0.3" d="M30.0291 10.5887C28.8536 10.5876 27.7267 10.1201 26.8955 9.28899C26.0644 8.45783 25.5969 7.33086 25.5958 6.15543V0H5.78568C4.25123 0 2.77961 0.609575 1.69459 1.69459C0.609575 2.77961 0 4.25118 0 5.78563V40.6629C0 42.1974 0.609575 43.669 1.69459 44.754C2.77961 45.839 4.25123 46.4486 5.78568 46.4486H29.5647C31.0991 46.4486 32.5707 45.839 33.6557 44.754C34.7408 43.669 35.3503 42.1974 35.3503 40.6629V10.5887H30.0291Z" fill="#47EF1D"/>
</g>
<path d="M35.3503 10.5887H30.029C28.8536 10.5876 27.7266 10.1201 26.8955 9.28899C26.0643 8.45783 25.5968 7.33086 25.5957 6.15543V0L35.3503 10.5887Z" fill="#47EF1D"/>
<path d="M39.5475 36.6812H12.6639C10.7569 36.6812 9.21094 38.2271 9.21094 40.1341V48.1493C9.21094 50.0562 10.7569 51.6022 12.6639 51.6022H39.5475C41.4544 51.6022 43.0003 50.0562 43.0003 48.1493V40.1341C43.0003 38.2271 41.4544 36.6812 39.5475 36.6812Z" fill="#47EF1D"/>
<path d="M18.7977 45.8766V47.4397H17.1787V45.8766H18.7977Z" fill="white"/>
<path d="M23.5336 47.4397L22.1727 45.4274L21.001 47.4397H19.21L21.2761 44.1115L19.1455 40.9747H21.001L22.3275 42.9226L23.4713 40.9747H25.2536L23.2154 44.2298L25.3913 47.4397H23.5336Z" fill="white"/>
<path d="M30.38 46.5626C30.1945 46.8595 29.9282 47.0973 29.6124 47.2484C29.228 47.4284 28.8069 47.516 28.3826 47.5042C27.7426 47.531 27.1118 47.3442 26.5896 46.9732C26.3585 46.7998 26.1696 46.5766 26.0367 46.3202C25.9038 46.0637 25.8304 45.7806 25.822 45.4919H27.4861C27.498 45.7096 27.5907 45.9151 27.7462 46.0681C27.901 46.2124 28.1066 46.2897 28.3181 46.2831C28.4043 46.2881 28.4907 46.2761 28.5722 46.2477C28.6538 46.2193 28.7289 46.175 28.7933 46.1175C28.8507 46.0619 28.8958 45.9949 28.9257 45.9209C28.9557 45.8468 28.9699 45.7673 28.9674 45.6875C28.9696 45.6117 28.9564 45.5363 28.9287 45.4657C28.901 45.3952 28.8593 45.3309 28.8062 45.2769C28.6924 45.1617 28.5573 45.0697 28.4085 45.006C28.2522 44.9372 28.0329 44.8533 27.7505 44.7544C27.4079 44.6414 27.0732 44.5057 26.7487 44.3481C26.482 44.2106 26.2531 44.0098 26.0821 43.7633C25.8838 43.4648 25.7859 43.1108 25.8026 42.7528C25.7949 42.398 25.897 42.0496 26.095 41.7551C26.2984 41.4675 26.5796 41.2437 26.9056 41.1101C27.2814 40.9573 27.6848 40.8841 28.0903 40.8951C28.7059 40.8612 29.3141 41.0429 29.8103 41.409C30.0214 41.5808 30.1944 41.7948 30.318 42.0373C30.4417 42.2798 30.5133 42.5454 30.5283 42.8172H28.8363C28.8174 42.627 28.7357 42.4485 28.6041 42.3099C28.5368 42.2454 28.4572 42.1954 28.3699 42.1629C28.2827 42.1303 28.1897 42.1159 28.0967 42.1206C27.9355 42.1133 27.7771 42.1654 27.6516 42.2669C27.5938 42.3218 27.5487 42.3887 27.5197 42.4631C27.4907 42.5374 27.4785 42.6173 27.4839 42.6969C27.4806 42.8414 27.5347 42.9813 27.6344 43.086C27.7414 43.1977 27.8702 43.2863 28.0128 43.3462C28.1655 43.4128 28.3848 43.4988 28.6707 43.602C29.0196 43.7157 29.3595 43.8551 29.6877 44.0191C29.9557 44.1637 30.1868 44.3682 30.3628 44.6168C30.5634 44.9201 30.6628 45.2791 30.6466 45.6424C30.6437 45.9677 30.5515 46.286 30.38 46.5626Z" fill="white"/>
<path d="M33.0736 46.2422H35.1677V47.4397H31.5127V40.9747H33.0779L33.0736 46.2422Z" fill="white"/>
<path d="M25.5609 32.4306H9.79712C8.43187 32.4306 7.32031 31.0718 7.32031 29.3991V17.9633C7.32031 16.2927 8.43187 14.9339 9.79712 14.9339H25.5674C26.9305 14.9339 28.042 16.2927 28.042 17.9633V29.3991C28.0356 31.0718 26.924 32.4306 25.5609 32.4306ZM9.79712 16.4819C9.12847 16.4819 8.58669 17.1463 8.58669 17.9633V29.3991C8.58669 30.2161 9.12847 30.8804 9.79712 30.8804H25.5674C26.2339 30.8804 26.7757 30.2161 26.7757 29.3991V17.9633C26.7757 17.1463 26.2339 16.4819 25.5674 16.4819H9.79712Z" fill="#47EF1D"/>
<path d="M27.4036 25.5442H7.94824V27.0943H27.4036V25.5442Z" fill="#47EF1D"/>
<path d="M27.4036 20.2294H7.94824V21.7795H27.4036V20.2294Z" fill="#47EF1D"/>
<path d="M22.4203 15.7079H20.8701V31.6544H22.4203V15.7079Z" fill="#47EF1D"/>
<path d="M14.4798 15.7079H12.9297V31.6544H14.4798V15.7079Z" fill="#47EF1D"/>
</svg>
